<svg xmlns="http://www.w3.org/2000/svg" viewBox="0 0 64 64">
<rect width="64" height="64" rx="8" fill="#1a1a2e"/>
<g fill="#2a2a4a">
<rect x="4" y="4" width="6" height="6" rx="1"/>
<rect x="12" y="4" width="6" height="6" rx="1"/>
<rect x="20" y="4" width="6" height="6" rx="1"/>
<rect x="28" y="4" width="6" height="6" rx="1"/>
<rect x="36" y="4" width="6" height="6" rx="1"/>
<rect x="44" y="4" width="6" height="6" rx="1"/>
<rect x="52" y="4" width="6" height="6" rx="1"/>
<rect x="4" y="12" width="6" height="6" rx="1"/>
<rect x="12" y="12" width="6" height="6" rx="1"/>
<rect x="20" y="12" width="6" height="6" rx="1"/>
<rect x="28" y="12" width="6" height="6" rx="1"/>
<rect x="36" y="12" width="6" height="6" rx="1"/>
<rect x="44" y="12" width="6" height="6" rx="1"/>
<rect x="52" y="12" width="6" height="6" rx="1"/>
<rect x="4" y="20" width="6" height="6" rx="1"/>
<rect x="12" y="20" width="6" height="6" rx="1"/>
<rect x="20" y="20" width="6" height="6" rx="1"/>
<rect x="28" y="20" width="6" height="6" rx="1"/>
<rect x="36" y="20" width="6" height="6" rx="1"/>
<rect x="44" y="20" width="6" height="6" rx="1"/>
<rect x="52" y="20" width="6" height="6" rx="1"/>
<rect x="4" y="28" width="6" height="6" rx="1"/>
<rect x="12" y="28" width="6" height="6" rx="1"/>
<rect x="20" y="28" width="6" height="6" rx="1"/>
<rect x="28" y="28" width="6" height="6" rx="1"/>
<rect x="36" y="28" width="6" height="6" rx="1"/>
<rect x="44" y="28" width="6" height="6" rx="1"/>
<rect x="52" y="28" width="6" height="6" rx="1"/>
<rect x="4" y="36" width="6" height="6" rx="1"/>
<rect x="12" y="36" width="6" height="6" rx="1"/>
<rect x="20" y="36" width="6" height="6" rx="1"/>
<rect x="28" y="36" width="6" height="6" rx="1"/>
<rect x="36" y="36" width="6" height="6" rx="1"/>
<rect x="44" y="36" width="6" height="6" rx="1"/>
<rect x="52" y="36" width="6" height="6" rx="1"/>
<rect x="4" y="44" width="6" height="6" rx="1"/>
<rect x="12" y="44" width="6" height="6" rx="1"/>
<rect x="20" y="44" width="6" height="6" rx="1"/>
<rect x="28" y="44" width="6" height="6" rx="1"/>
<rect x="36" y="44" width="6" height="6" rx="1"/>
<rect x="44" y="44" width="6" height="6" rx="1"/>
<rect x="52" y="44" width="6" height="6" rx="1"/>
<rect x="4" y="52" width="6" height="6" rx="1"/>
<rect x="12" y="52" width="6" height="6" rx="1"/>
<rect x="20" y="52" width="6" height="6" rx="1"/>
<rect x="28" y="52" width="6" height="6" rx="1"/>
<rect x="36" y="52" width="6" height="6" rx="1"/>
<rect x="44" y="52" width="6" height="6" rx="1"/>
<rect x="52" y="52" width="6" height="6" rx="1"/>
</g>
<!-- Root (orange) -->
<rect x="4" y="52" width="6" height="6" rx="1" fill="#E69F00"/>
<!-- Scale tones (sky blue) - C major scale pattern on bottom rows -->
<rect x="20" y="52" width="6" height="6" rx="1" fill="#56B4E9"/>
<rect x="36" y="52" width="6" height="6" rx="1" fill="#56B4E9"/>
<rect x="44" y="52" width="6" height="6" rx="1" fill="#56B4E9"/>
<rect x="12" y="44" width="6" height="6" rx="1" fill="#56B4E9"/>
<rect x="28" y="44" width="6" height="6" rx="1" fill="#56B4E9"/>
<rect x="44" y="44" width="6" height="6" rx="1" fill="#56B4E9"/>
<!-- Root octave -->
<rect x="20" y="44" width="6" height="6" rx="1" fill="#E69F00"/>
<rect x="36" y="36" width="6" height="6" rx="1" fill="#E69F00"/>
</svg>
